<?xml version="1.0" encoding="UTF-8" standalone="no"?>
<!-- Created with Inkscape (http://www.inkscape.org/) -->

<svg
   xmlns:dc="http://purl.org/dc/elements/1.1/"
   xmlns:cc="http://creativecommons.org/ns#"
   xmlns:rdf="http://www.w3.org/1999/02/22-rdf-syntax-ns#"
   xmlns:svg="http://www.w3.org/2000/svg"
   xmlns="http://www.w3.org/2000/svg"
   xmlns:sodipodi="http://sodipodi.sourceforge.net/DTD/sodipodi-0.dtd"
   xmlns:inkscape="http://www.inkscape.org/namespaces/inkscape"
   width="198.68533"
   height="78.035141"
   viewBox="0 0 52.568827 20.646798"
   version="1.1"
   id="svg1305"
   inkscape:version="0.92.0 r15299"
   sodipodi:docname="saxion university 2019.svg">
  <defs
     id="defs1299" />
  <sodipodi:namedview
     id="base"
     pagecolor="#ffffff"
     bordercolor="#666666"
     borderopacity="1.0"
     inkscape:pageopacity="0.0"
     inkscape:pageshadow="2"
     inkscape:zoom="4.560584"
     inkscape:cx="98.342668"
     inkscape:cy="38.017569"
     inkscape:document-units="mm"
     inkscape:current-layer="layer1"
     showgrid="false"
     fit-margin-top="0"
     fit-margin-left="0"
     fit-margin-right="0"
     fit-margin-bottom="0"
     units="px"
     inkscape:window-width="1280"
     inkscape:window-height="744"
     inkscape:window-x="-4"
     inkscape:window-y="-4"
     inkscape:window-maximized="1" />
  <metadata
     id="metadata1302">
    <rdf:RDF>
      <cc:Work
         rdf:about="">
        <dc:format>image/svg+xml</dc:format>
        <dc:type
           rdf:resource="http://purl.org/dc/dcmitype/StillImage" />
        <dc:title></dc:title>
      </cc:Work>
    </rdf:RDF>
  </metadata>
  <g
     inkscape:label="Layer 1"
     inkscape:groupmode="layer"
     id="layer1"
     transform="translate(-65.450408,-159.41202)">
    <g
       id="g1419"
       transform="translate(0.26458288,-0.26457535)">
      <path
         d="m 71.968188,168.90645 h 1.90288 l -0.95109,-2.44404 z m -1.99707,2.4525 2.38759,-6.13127 h 1.45239 l 2.38619,6.13127 h -1.3716 l -0.63676,-1.63618 h -2.53859 l -0.63712,1.63618 z"
         style="fill:#ffffff;fill-opacity:1;fill-rule:nonzero;stroke:none;stroke-width:0.35277778"
         id="path314"
         inkscape:connector-curvature="0" />
      <path
         d="m 65.462758,171.30508 v -1.05234 c 0.47872,0.20073 0.83608,0.32103 1.0728,0.35984 0.23636,0.0392 0.45402,0.0586 0.65299,0.0586 0.35807,0 0.62547,-0.0801 0.80186,-0.24024 0.17639,-0.16016 0.26459,-0.35243 0.26459,-0.57643 0,-0.17145 -0.0494,-0.32597 -0.14817,-0.46426 -0.0988,-0.13547 -0.34078,-0.31115 -0.72531,-0.52669 l -0.41381,-0.22826 c -0.5909,-0.32878 -0.9906,-0.63289 -1.1998,-0.91192 -0.21166,-0.27905 -0.3175,-0.60255 -0.3175,-0.97014 0,-0.46143 0.17639,-0.85655 0.52917,-1.18533 0.35313,-0.32879 0.86007,-0.49355 1.52118,-0.49355 0.49389,0 1.05057,0.0705 1.66969,0.21131 v 0.98215 c -0.63394,-0.23495 -1.137,-0.35243 -1.51024,-0.35243 -0.30833,0 -0.54328,0.067 -0.70449,0.20107 -0.16122,0.13407 -0.24201,0.29528 -0.24201,0.48297 0,0.14392 0.0494,0.27799 0.14817,0.40251 0.0956,0.12417 0.33584,0.29421 0.72037,0.50976 l 0.44309,0.24484 c 0.67733,0.37853 1.10913,0.70731 1.2961,0.98601 0.1838,0.28152 0.27588,0.59761 0.27588,0.94827 0,0.50234 -0.19156,0.93132 -0.57503,1.28728 -0.38312,0.3563 -0.99272,0.5341 -1.8288,0.5341 -0.49601,0 -1.07315,-0.0691 -1.73073,-0.20708"
         style="fill:#ffffff;fill-opacity:1;fill-rule:nonzero;stroke:none;stroke-width:0.35277778"
         id="path326"
         inkscape:connector-curvature="0" />
      <path
         inkscape:connector-curvature="0"
         id="path328"
         style="fill:#ffffff;fill-opacity:1;fill-rule:nonzero;stroke:none;stroke-width:0.35277778"
         d="m 84.457868,165.22774 h 1.27599 v 6.13128 h -1.27599 z" />
      <path
         d="m 90.102728,170.67019 c 0.5909,0 1.03082,-0.2413 1.31939,-0.72355 0.28857,-0.48223 0.43286,-1.03433 0.43286,-1.65663 0,-0.62442 -0.14499,-1.17687 -0.43498,-1.65629 -0.28998,-0.47943 -0.72884,-0.71933 -1.31727,-0.71933 -0.5909,0 -1.03152,0.2399 -1.32151,0.71933 -0.28998,0.47942 -0.43497,1.03187 -0.43497,1.65629 0,0.6223 0.14429,1.1744 0.43286,1.65663 0.28857,0.48225 0.7299,0.72355 1.32362,0.72355 m 0,0.84102 c -0.63817,0 -1.19309,-0.13194 -1.66546,-0.39581 -0.47202,-0.26353 -0.83115,-0.64347 -1.07703,-1.13912 -0.24589,-0.49565 -0.36866,-1.05693 -0.36866,-1.68416 0,-0.62407 0.12277,-1.18463 0.36866,-1.68169 0.24588,-0.49741 0.60607,-0.87772 1.08126,-1.14159 0.47484,-0.26352 1.0287,-0.39546 1.66123,-0.39546 0.62971,0 1.18216,0.13194 1.657,0.39546 0.475189,0.26387 0.835731,0.64418 1.081259,1.14159 0.245891,0.49706 0.368652,1.05762 0.368652,1.68169 0,0.62723 -0.122761,1.18851 -0.368652,1.68416 -0.245528,0.49565 -0.604308,0.87559 -1.074909,1.13912 -0.47096,0.26387 -1.02553,0.39581 -1.66335,0.39581"
         style="fill:#ffffff;fill-opacity:1;fill-rule:nonzero;stroke:none;stroke-width:0.35277778"
         id="path332"
         inkscape:connector-curvature="0" />
      <path
         d="m 94.508958,171.35902 v -6.13128 h 1.198031 l 2.713569,4.01532 v -4.01532 h 0.970492 v 6.13128 h -1.077032 l -2.832449,-4.18358 v 4.18358 z"
         style="fill:#ffffff;fill-opacity:1;fill-rule:nonzero;stroke:none;stroke-width:0.35277778"
         id="path336"
         inkscape:connector-curvature="0" />
      <path
         d="m 77.378148,166.08595 c -0.35031,0.8636 -0.53763,1.79529 -0.53763,2.74601 0,0.59055 0.0713,1.17581 0.2099,1.74378 l 2.2031,-2.23449 z"
         style="fill:#ffffff;fill-opacity:1;fill-rule:nonzero;stroke:none;stroke-width:0.35277778"
         id="path340"
         inkscape:connector-curvature="0" />
      <path
         d="m 84.113768,161.48301 c -1.02023,0 -2.11843,0.25188 -3.08892,0.7172 l -0.0201,0.01 -0.0148,-0.0162 c -1.35502,-1.43226 -3.18135,-2.23237 -5.14209,-2.25248 l -0.0459,-3.5e-4 v 1.24918 l 0.0448,3.5e-4 c 1.506,0.0187 2.93722,0.60572 4.02942,1.65277 l 0.0261,0.0251 -0.0293,0.0212 c -0.8636,0.62936 -1.56563,1.42946 -2.07822,2.33751 h 0.69251 l 1.75436,2.11208 1.49119,-1.51236 h -0.51823 v -0.59972 h 1.4859 c -0.1912,-0.69603 -0.48648,-1.36067 -0.88265,-1.97626 l -0.0194,-0.0303 0.0332,-0.0138 c 0.72531,-0.30515 1.54305,-0.47413 2.28318,-0.47413 0.121,0 0.25894,0.001 0.3429,0.005 v -1.25025 c -0.084,-0.003 -0.17286,-0.004 -0.34396,-0.004"
         style="fill:#ffffff;fill-opacity:1;fill-rule:nonzero;stroke:none;stroke-width:0.35277778"
         id="path344"
         inkscape:connector-curvature="0" />
      <path
         d="m 80.863838,168.08571 1.52717,1.83268 c 0.36901,-0.87171 0.56727,-1.81893 0.56727,-2.79153 0,-0.36549 -0.0293,-0.72779 -0.084,-1.0855 z"
         style="fill:#ffffff;fill-opacity:1;fill-rule:nonzero;stroke:none;stroke-width:0.35277778"
         id="path348"
         inkscape:connector-curvature="0" />
      <path
         d="m 84.114788,174.93178 c -1.56245,0 -3.1429,-0.67169 -4.28307,-1.83691 l -0.0251,-0.0254 0.0296,-0.0205 c 0.72249,-0.49742 1.33703,-1.11372 1.82527,-1.81222 l -1.7854,-2.147 -1.71697,1.74624 h 0.52175 v 0.52141 h -1.39312 c 0.16193,0.44273 0.36619,0.86642 0.61243,1.27282 l 0.0187,0.0307 -0.0339,0.0131 c -0.65335,0.24977 -1.33915,0.381 -2.03835,0.38947 l -0.0448,6.9e-4 v 1.24919 l 0.0459,-6.9e-4 c 0.97578,-0.0102 1.92369,-0.2152 2.81693,-0.6096 l 0.0201,-0.009 0.0148,0.0166 c 1.37725,1.5487 3.37644,2.47051 5.41408,2.47051 0.20426,0 0.26,0.001 0.34396,-0.002 v -1.25201 c -0.084,0.004 -0.17956,0.005 -0.3429,0.005"
         style="fill:#ffffff;fill-opacity:1;fill-rule:nonzero;stroke:none;stroke-width:0.35277778"
         id="path352"
         inkscape:connector-curvature="0" />
      <path
         d="m 86.918348,173.90872 v 1.32715 c 0,0.43074 0.0921,0.63994 0.40217,0.63994 0.26634,0 0.40252,-0.1584 0.40252,-0.58279 v -1.3843 h 0.53198 v 1.4538 c 0,0.20284 -0.003,0.89323 -0.94685,0.89323 -0.56409,0 -1.00118,-0.26599 -1.00118,-0.89323 v -1.4538 z"
         style="fill:#ffffff;fill-opacity:1;fill-rule:nonzero;stroke:none;stroke-width:0.35277778"
         id="path356"
         inkscape:connector-curvature="0" />
      <path
         d="m 88.788318,173.90872 h 0.51012 l 0.97225,1.37442 h 0.007 v -1.37442 h 0.45897 v 2.29023 h -0.50659 l -0.975779,-1.37477 h -0.006 v 1.37477 h -0.45932 z"
         style="fill:#ffffff;fill-opacity:1;fill-rule:nonzero;stroke:none;stroke-width:0.35277778"
         id="path360"
         inkscape:connector-curvature="0" />
      <path
         inkscape:connector-curvature="0"
         id="path362"
         style="fill:#ffffff;fill-opacity:1;fill-rule:nonzero;stroke:none;stroke-width:0.35277778"
         d="m 91.269648,173.9089 h 0.61137 v 2.29023 h -0.61137 z" />
      <path
         d="m 92.195169,173.90872 h 0.649459 l 0.60184,1.66934 h 0.006 l 0.58914,-1.66934 h 0.405339 l -0.810678,2.29023 h -0.611362 z"
         style="fill:#ffffff;fill-opacity:1;fill-rule:nonzero;stroke:none;stroke-width:0.35277778"
         id="path366"
         inkscape:connector-curvature="0" />
      <path
         d="m 94.742998,173.90872 h 1.56492 v 0.37994 h -0.953561 v 0.55774 h 0.78246 v 0.34184 h -0.78246 v 0.63042 h 1.029412 v 0.38029 h -1.640771 z"
         style="fill:#ffffff;fill-opacity:1;fill-rule:nonzero;stroke:none;stroke-width:0.35277778"
         id="path370"
         inkscape:connector-curvature="0" />
      <path
         d="m 97.360399,174.94127 h 0.202851 c 0.212018,0 0.326318,-0.22507 0.326318,-0.39299 0,-0.15523 -0.0698,-0.25965 -0.342199,-0.25965 h -0.18697 z m -0.57326,-1.03258 h 1.089729 c 0.285041,0 0.62406,0.16157 0.62406,0.57326 0,0.2787 -0.180621,0.53552 -0.42757,0.65264 l 0.734841,1.06433 h -0.73836 l -0.493889,-0.91581 h -0.215551 v 0.91581 h -0.57326 z"
         style="fill:#ffffff;fill-opacity:1;fill-rule:nonzero;stroke:none;stroke-width:0.35277778"
         id="path374"
         inkscape:connector-curvature="0" />
      <path
         d="m 98.999188,175.73967 c 0.196141,0.079 0.40852,0.13617 0.62089,0.13617 0.161571,0 0.379942,-0.0444 0.379942,-0.25047 0,-0.37042 -1.019882,-0.40852 -1.019882,-1.13065 0,-0.45932 0.411689,-0.64312 0.814211,-0.64312 0.227901,0 0.456141,0.0286 0.680861,0.0699 v 0.43392 c -0.18697,-0.0667 -0.38629,-0.12382 -0.585961,-0.12382 -0.1203,0 -0.297751,0.0476 -0.297751,0.19649 0,0.34537 1.057982,0.38982 1.057982,1.13701 0,0.23142 -0.12029,0.69073 -0.937681,0.69073 -0.294572,0 -0.54469,-0.0282 -0.712611,-0.0568 z"
         style="fill:#ffffff;fill-opacity:1;fill-rule:nonzero;stroke:none;stroke-width:0.35277778"
         id="path378"
         inkscape:connector-curvature="0" />
      <path
         inkscape:connector-curvature="0"
         id="path380"
         style="fill:#ffffff;fill-opacity:1;fill-rule:nonzero;stroke:none;stroke-width:0.35277778"
         d="m 100.99574,173.9089 h 0.61136 v 2.29023 h -0.61136 z" />
      <path
         d="m 102.732,174.29187 h -0.83009 v -0.38312 h 2.27154 v 0.38312 h -0.83009 v 1.90712 H 102.732 Z"
         style="fill:#ffffff;fill-opacity:1;fill-rule:nonzero;stroke:none;stroke-width:0.35277778"
         id="path384"
         inkscape:connector-curvature="0" />
      <path
         d="m 105.06122,175.2358 -0.77294,-1.32715 h 0.66217 l 0.52881,0.90593 0.53234,-0.90593 h 0.44344 l -0.78246,1.32715 v 0.96308 h -0.61136 z"
         style="fill:#ffffff;fill-opacity:1;fill-rule:nonzero;stroke:none;stroke-width:0.35277778"
         id="path388"
         inkscape:connector-curvature="0" />
      <path
         d="m 108.98449,175.87581 c 0.43074,0 0.58914,-0.45297 0.58914,-0.82056 0,-0.36724 -0.1584,-0.82374 -0.58914,-0.82374 -0.43392,0 -0.59231,0.4565 -0.59231,0.82374 0,0.36759 0.15839,0.82056 0.59231,0.82056 m 0,-2.02424 c 0.74436,0 1.2386,0.44344 1.2386,1.20368 0,0.76059 -0.49424,1.2005 -1.2386,1.2005 -0.74436,0 -1.24178,-0.43991 -1.24178,-1.2005 0,-0.76024 0.49742,-1.20368 1.24178,-1.20368"
         style="fill:#ffffff;fill-opacity:1;fill-rule:nonzero;stroke:none;stroke-width:0.35277778"
         id="path392"
         inkscape:connector-curvature="0" />
      <path
         d="m 110.60427,173.90872 h 1.58397 v 0.37994 h -0.97261 v 0.63394 h 0.79199 v 0.34184 h -0.79199 v 0.93451 h -0.61136 z"
         style="fill:#ffffff;fill-opacity:1;fill-rule:nonzero;stroke:none;stroke-width:0.35277778"
         id="path396"
         inkscape:connector-curvature="0" />
      <path
         d="m 87.472738,179.05797 -0.31044,-0.81104 -0.31045,0.81104 z m -0.51329,-1.3462 h 0.61136 l 0.87771,2.29023 h -0.61489 l -0.22154,-0.58279 h -0.89641 l -0.22507,0.58279 h -0.40852 z"
         style="fill:#ffffff;fill-opacity:1;fill-rule:nonzero;stroke:none;stroke-width:0.35277778"
         id="path400"
         inkscape:connector-curvature="0" />
      <path
         d="m 89.330048,178.77286 c 0.21237,0 0.52282,-0.0254 0.52282,-0.40252 0,-0.20884 -0.15523,-0.27869 -0.3422,-0.27869 -0.0603,0 -0.1203,0.01 -0.18062,0.0222 z m -0.57326,-1.06116 h 1.0234 c 0.42757,0 0.68404,0.16158 0.68404,0.61137 0,0.45614 -0.28822,0.79163 -0.79834,0.79163 h -0.33584 v 0.88724 h -0.57326 z"
         style="fill:#ffffff;fill-opacity:1;fill-rule:nonzero;stroke:none;stroke-width:0.35277778"
         id="path404"
         inkscape:connector-curvature="0" />
      <path
         d="m 91.412138,178.77286 c 0.21237,0 0.522821,-0.0254 0.522821,-0.40252 0,-0.20884 -0.155231,-0.27869 -0.342201,-0.27869 -0.0603,0 -0.1203,0.01 -0.18062,0.0222 z m -0.57326,-1.06116 h 1.02305 c 0.427919,0 0.68439,0.16158 0.68439,0.61137 0,0.45614 -0.288221,0.79163 -0.79834,0.79163 h -0.33584 v 0.88724 h -0.57326 z"
         style="fill:#ffffff;fill-opacity:1;fill-rule:nonzero;stroke:none;stroke-width:0.35277778"
         id="path408"
         inkscape:connector-curvature="0" />
      <path
         d="m 92.920828,177.71167 h 0.61136 v 1.91029 h 1.029411 v 0.37994 h -1.640771 z"
         style="fill:#ffffff;fill-opacity:1;fill-rule:nonzero;stroke:none;stroke-width:0.35277778"
         id="path412"
         inkscape:connector-curvature="0" />
      <path
         inkscape:connector-curvature="0"
         id="path414"
         style="fill:#ffffff;fill-opacity:1;fill-rule:nonzero;stroke:none;stroke-width:0.35277778"
         d="m 94.885619,177.71149 h 0.61137 v 2.29023 h -0.61137 z" />
      <path
         d="m 96.029719,177.71167 h 1.564918 v 0.37994 h -0.953558 v 0.55774 h 0.78246 v 0.34184 h -0.78246 v 0.63077 h 1.029409 v 0.37994 h -1.640769 z"
         style="fill:#ffffff;fill-opacity:1;fill-rule:nonzero;stroke:none;stroke-width:0.35277778"
         id="path418"
         inkscape:connector-curvature="0" />
      <path
         d="m 98.685078,179.59952 c 0.10442,0.0127 0.19967,0.0222 0.294571,0.0222 0.525989,0 0.65899,-0.39899 0.65899,-0.78246 0,-0.31997 -0.1016,-0.74753 -0.64312,-0.74753 h -0.310441 z m -0.61136,-1.88771 h 1.248119 c 0.316802,0 0.966263,0.19297 0.966263,1.10525 0,0.80468 -0.484711,1.18498 -1.077031,1.18498 h -1.137351 z"
         style="fill:#ffffff;fill-opacity:1;fill-rule:nonzero;stroke:none;stroke-width:0.35277778"
         id="path422"
         inkscape:connector-curvature="0" />
      <path
         d="m 101.6421,179.54265 c 0.1965,0.079 0.40887,0.13617 0.62089,0.13617 0.16157,0 0.38029,-0.0445 0.38029,-0.25047 0,-0.37042 -1.02023,-0.40852 -1.02023,-1.13065 0,-0.45932 0.41204,-0.64312 0.81421,-0.64312 0.22825,0 0.45614,0.0286 0.68121,0.0699 v 0.43392 c -0.18697,-0.0667 -0.38664,-0.12382 -0.58631,-0.12382 -0.1203,0 -0.29739,0.0476 -0.29739,0.19649 0,0.34537 1.05798,0.38982 1.05798,1.13701 0,0.23142 -0.12065,0.69073 -0.93769,0.69073 -0.29492,0 -0.54504,-0.0282 -0.71296,-0.0568 z"
         style="fill:#ffffff;fill-opacity:1;fill-rule:nonzero;stroke:none;stroke-width:0.35277778"
         id="path426"
         inkscape:connector-curvature="0" />
      <path
         d="m 105.54569,178.17091 c -0.21872,-0.0822 -0.44662,-0.13652 -0.68121,-0.13652 -0.55422,0 -0.72849,0.39616 -0.72849,0.80786 0,0.51329 0.26952,0.83643 0.79199,0.83643 0.21872,0 0.45614,-0.0695 0.65581,-0.16475 v 0.42122 c -0.26,0.0857 -0.53869,0.12347 -0.85549,0.12347 -0.74436,0 -1.24177,-0.43991 -1.24177,-1.20015 0,-0.76058 0.49741,-1.20403 1.24177,-1.20403 0.3041,0 0.56727,0.0222 0.81739,0.0762 z"
         style="fill:#ffffff;fill-opacity:1;fill-rule:nonzero;stroke:none;stroke-width:0.35277778"
         id="path430"
         inkscape:connector-curvature="0" />
      <path
         inkscape:connector-curvature="0"
         id="path432"
         style="fill:#ffffff;fill-opacity:1;fill-rule:nonzero;stroke:none;stroke-width:0.35277778"
         d="m 105.93956,177.71149 h 0.61137 v 2.29023 h -0.61137 z" />
      <path
         d="m 107.08352,177.71167 h 1.56492 v 0.37994 h -0.95356 v 0.55774 h 0.78246 v 0.34184 h -0.78246 v 0.63077 h 1.02941 v 0.37994 h -1.64077 z"
         style="fill:#ffffff;fill-opacity:1;fill-rule:nonzero;stroke:none;stroke-width:0.35277778"
         id="path436"
         inkscape:connector-curvature="0" />
      <path
         d="m 109.12751,177.71167 h 0.51012 l 0.97225,1.37477 h 0.007 v -1.37477 h 0.45897 v 2.29023 h -0.50659 l -0.97578,-1.37477 h -0.006 v 1.37477 h -0.45932 z"
         style="fill:#ffffff;fill-opacity:1;fill-rule:nonzero;stroke:none;stroke-width:0.35277778"
         id="path440"
         inkscape:connector-curvature="0" />
      <path
         d="m 113.51589,178.17091 c -0.21872,-0.0822 -0.44662,-0.13652 -0.68086,-0.13652 -0.55457,0 -0.72884,0.39616 -0.72884,0.80786 0,0.51329 0.26917,0.83643 0.79199,0.83643 0.21872,0 0.45614,-0.0695 0.65581,-0.16475 v 0.42122 c -0.26,0.0857 -0.53869,0.12347 -0.85549,0.12347 -0.74436,0 -1.24142,-0.43991 -1.24142,-1.20015 0,-0.76058 0.49706,-1.20403 1.24142,-1.20403 0.3041,0 0.56727,0.0222 0.81739,0.0762 z"
         style="fill:#ffffff;fill-opacity:1;fill-rule:nonzero;stroke:none;stroke-width:0.35277778"
         id="path444"
         inkscape:connector-curvature="0" />
      <path
         d="m 113.90977,177.71167 h 1.56492 v 0.37994 h -0.95356 v 0.55774 h 0.78246 v 0.34184 h -0.78246 v 0.63077 h 1.02941 v 0.37994 h -1.64077 z"
         style="fill:#ffffff;fill-opacity:1;fill-rule:nonzero;stroke:none;stroke-width:0.35277778"
         id="path456"
         inkscape:connector-curvature="0" />
      <path
         d="m 115.83978,179.54265 c 0.1965,0.079 0.40852,0.13617 0.62089,0.13617 0.16157,0 0.38029,-0.0445 0.38029,-0.25047 0,-0.37042 -1.02023,-0.40852 -1.02023,-1.13065 0,-0.45932 0.41169,-0.64312 0.81421,-0.64312 0.2279,0 0.45614,0.0286 0.68086,0.0699 v 0.43392 c -0.18697,-0.0667 -0.38629,-0.12382 -0.58596,-0.12382 -0.1203,0 -0.29775,0.0476 -0.29775,0.19649 0,0.34537 1.05798,0.38982 1.05798,1.13701 0,0.23142 -0.12029,0.69073 -0.93768,0.69073 -0.29457,0 -0.54469,-0.0282 -0.71261,-0.0568 z"
         style="fill:#ffffff;fill-opacity:1;fill-rule:nonzero;stroke:none;stroke-width:0.35277778"
         id="path460"
         inkscape:connector-curvature="0" />
    </g>
  </g>
</svg>
